<?xml version="1.0" encoding="UTF-8"?>
<!DOCTYPE svg PUBLIC "-//W3C//DTD SVG 1.1//EN" "http://www.w3.org/Graphics/SVG/1.1/DTD/svg11.dtd">
<svg xmlns="http://www.w3.org/2000/svg" version="1.1" width="96px" height="96px" style="shape-rendering:geometricPrecision; text-rendering:geometricPrecision; image-rendering:optimizeQuality; fill-rule:evenodd; clip-rule:evenodd" xmlns:xlink="http://www.w3.org/1999/xlink">
<g><path style="opacity:0.992" fill="#f4bb01" d="M 83.5,51.5 C 80.0649,47.6166 75.7315,45.6166 70.5,45.5C 57.6653,48.9586 44.6653,51.6252 31.5,53.5C 28.9845,50.4326 25.6512,49.0993 21.5,49.5C 19.7461,45.4118 16.7461,42.7451 12.5,41.5C 16.318,32.5102 22.4847,25.5102 31,20.5C 31.3333,14.5 31.6667,8.5 32,2.5C 36.1329,7.63437 40.6329,12.4677 45.5,17C 50.464,17.0355 55.1307,18.2022 59.5,20.5C 66.3509,15.2388 73.0175,9.73876 79.5,4C 80.448,3.51722 81.448,3.35055 82.5,3.5C 84.5545,13.4613 84.3878,23.4613 82,33.5C 81.5503,35.519 80.717,37.3523 79.5,39C 81.7363,42.8757 83.0697,47.0424 83.5,51.5 Z"/></g>
<g><path style="opacity:1" fill="#2906c0" d="M 28.5,36.5 C 29.8333,38.5 29.8333,40.5 28.5,42.5C 25.7564,41.9283 24.9231,40.2617 26,37.5C 26.6708,36.7476 27.5041,36.4142 28.5,36.5 Z"/></g>
<g><path style="opacity:1" fill="#bf9ae2" d="M 28.5,36.5 C 27.5041,36.4142 26.6708,36.7476 26,37.5C 24.9231,40.2617 25.7564,41.9283 28.5,42.5C 25.3349,44.0907 23.0016,43.0907 21.5,39.5C 23.0016,35.9093 25.3349,34.9093 28.5,36.5 Z"/></g>
<g><path style="opacity:1" fill="#bc93df" d="M 51.5,38.5 C 48.8333,41.1667 48.8333,43.8333 51.5,46.5C 50.7494,47.5735 49.7494,47.7401 48.5,47C 46.4148,45.9586 44.7481,44.4586 43.5,42.5C 44.7481,40.5414 46.4148,39.0414 48.5,38C 49.7494,37.2599 50.7494,37.4265 51.5,38.5 Z"/></g>
<g><path style="opacity:1" fill="#451bbb" d="M 51.5,38.5 C 59.5,41.1667 59.5,43.8333 51.5,46.5C 48.8333,43.8333 48.8333,41.1667 51.5,38.5 Z"/></g>
<g><path style="opacity:1" fill="#f9e369" d="M 12.5,41.5 C 16.7461,42.7451 19.7461,45.4118 21.5,49.5C 17.2978,50.9518 16.4645,53.6185 19,57.5C 22.5504,60.0834 26.0504,59.9167 29.5,57C 30.8228,56.1841 31.4894,55.0174 31.5,53.5C 44.6653,51.6252 57.6653,48.9586 70.5,45.5C 75.7315,45.6166 80.0649,47.6166 83.5,51.5C 83.1337,71.0491 73.467,83.5491 54.5,89C 32.1436,92.5788 17.3103,83.7454 10,62.5C 9.33333,57.1667 9.33333,51.8333 10,46.5C 10.3736,44.5087 11.207,42.842 12.5,41.5 Z"/></g>
<g><path style="opacity:1" fill="#300dbf" d="M 21.5,49.5 C 25.6512,49.0993 28.9845,50.4326 31.5,53.5C 31.4894,55.0174 30.8228,56.1841 29.5,57C 26.0504,59.9167 22.5504,60.0834 19,57.5C 16.4645,53.6185 17.2978,50.9518 21.5,49.5 Z"/></g>
<g><path style="opacity:1" fill="#3b16be" d="M 18.5,61.5 C 24.4202,62.2928 30.0868,63.9594 35.5,66.5C 38.3655,66.0688 41.0322,65.0688 43.5,63.5C 47.7416,66.5369 47.4082,69.0369 42.5,71C 36.4648,73.4234 30.7982,72.7568 25.5,69C 22.854,68.5026 20.1873,68.3359 17.5,68.5C 17.7394,66.5328 17.4061,64.6995 16.5,63C 17.4158,62.7216 18.0825,62.2216 18.5,61.5 Z"/></g>
</svg>
