<svg fill="#FAB005" xmlns="http://www.w3.org/2000/svg"  viewBox="0 0 72 72" width="64px" height="64px"><path d="M36,12c13.255,0,24,10.745,24,24c0,13.255-10.745,24-24,24S12,49.255,12,36C12,22.745,22.745,12,36,12z M46.018,31.464	c0.901-1.391,0.504-3.248-0.887-4.149c-1.39-0.901-3.247-0.503-4.148,0.886l-7.134,11.011l-3.097-3.519	c-1.094-1.243-2.99-1.364-4.233-0.271c-1.244,1.095-1.365,2.99-0.271,4.234l5.713,6.493c0.571,0.649,1.394,1.018,2.252,1.018	c0.073,0,0.146-0.002,0.22-0.008c0.937-0.069,1.787-0.572,2.298-1.36L46.018,31.464z"/></svg>