<?xml version="1.0" standalone="yes"?>
<svg xmlns="http://www.w3.org/2000/svg" width="402" height="398">
<path style="fill:#f9fdf9; stroke:none;" d="M0 0L0 398L74 398L74 397C47.2529 386.762 23.5368 375.476 10.1312 348C-3.88524 319.273 1 285.087 1 254L1 131C1 112.786 -2.82884 89.6552 1.6088 72C9.90274 39.0025 33.6327 8.9545 68 1L47 0L0 0z"/>
<path style="fill:#fbe550; stroke:none;" d="M68 0.517761C33.5345 7.82666 9.82527 38.3107 1.6088 71C-2.9021 88.9467 1 112.484 1 131L1 258C1 288.977 -4.69856 325.38 12.3719 353C26.3288 375.582 49.2977 393.24 76 397.74C94.3034 400.825 115.425 398 134 398L245 398L301 398C309.282 398 319.698 399.691 327.715 397.53C363.873 387.785 394.026 361.217 400.737 323C404.319 302.603 401 278.729 401 258L401 144C401 104.73 407.271 62.6034 380.535 30C354.419 -1.84818 321.273 0 284 0L144 0C120.134 0 91.3244 -4.4285 68 0.517761z"/>
<path style="fill:#f9fdf9; stroke:none;" d="M333 0L333 1C362.716 5.02112 388.093 33.7484 396.806 61C403.991 83.4758 401 108.585 401 132L401 257C401 286.084 404.952 316.747 393.385 344C385.631 362.268 371.071 377.161 354 386.985C347.425 390.769 333.331 392.305 329 398L402 398L402 0L333 0M155 322L156 322C177.94 304.589 203.526 290.646 218.536 266C234.461 239.853 232.099 212.064 234.09 183C234.933 170.688 234.246 158.305 235.09 146C235.366 141.968 235.323 133.903 241 136C249.553 132.641 254.903 138.751 255 147C257.189 141.783 256 134.619 256 129L256 91C256 86.9218 257.933 75.9797 254.397 73.179C251.685 71.0315 246.221 72 243 72L216 72C208.858 72 186.87 68.365 181.742 73.6034C179.127 76.2754 180 81.6127 180 85L180 115L180 183C180 198.412 181.065 214.278 175.536 229C170.313 242.908 160.743 254.158 149 263.101C143.519 267.276 130.121 272.886 128.478 280.09C127.418 284.736 131.767 289.543 134.282 293C141.266 302.599 147.624 312.7 155 322z"/>
<path style="fill:#92d7eb; stroke:none;" d="M156 321L156 322C164.428 319.206 171.753 312.054 179 307.025C205.746 288.461 233.977 258.869 234 224L235 224L235 227L238 222L242 229L243 229L248 222L250 230C254.334 223.769 254.416 215.345 255.285 208C257.442 189.794 256.435 170.339 255.985 152C255.811 144.867 251.494 127.799 241 136C235.474 132.528 235.358 141.079 235.09 145C234.267 157.006 235.312 169 234.17 181C232.197 201.732 234.364 221.559 228.572 242C218.123 278.873 185.38 299.896 156 321z"/>
<path style="fill:#96cd94; stroke:none;" d="M256 171L256 174L257 174L256 171M256 176C256 220.834 252.261 266.288 218.985 299.996C208.401 310.718 195.975 319.045 184 328.035C180.474 330.682 173.886 337.464 169.093 336.828C163.97 336.148 159.373 326.302 158 322L155 323C157.255 328.135 162.752 338.617 169.004 339.353C174.059 339.947 180.203 334.12 184 331.36C195.262 323.176 206.317 315.11 216.572 305.661C245.243 279.245 257 243.206 257 205C257 196.466 259.306 183.879 256 176z"/>
<path style="fill:#5dbbe5; stroke:none;" d="M238 222C237.417 224.178 236.499 227.12 235 224L234 224C233.919 252.149 212.953 279.576 192 296.335C183.558 303.087 174.786 309.284 166 315.579C163.239 317.557 158.16 320.039 158.567 324.09C159.033 328.725 165.669 338.487 171.015 337.164C181.041 334.684 194.106 322.277 202 315.715C229.126 293.161 252 263.871 252 227L251 227L250 230L248 222L243 229L242 229L238 222z"/>
<path style="fill:#92d7eb; stroke:none;" d="M237 229L238 230L237 229M251 239L251 243L252 243L251 239z"/>
</svg>
